<?xml version="1.0" encoding="UTF-8"?>
<svg version="1.1" xmlns="http://www.w3.org/2000/svg" width="128" height="128">
<path d="M0 0 C25.74 0 51.48 0 78 0 C79.65 4.95 81.3 9.9 83 15 C91.68853079 29.36949322 102.68926617 37.43825693 118 44 C118 69.74 118 95.48 118 122 C104.95087785 120.81371617 104.95087785 120.81371617 98.5625 119 C97.81025146 118.78778809 97.05800293 118.57557617 96.28295898 118.35693359 C82.78138677 114.33211977 69.42136302 108.27786861 58 100 C56.48792969 98.92878906 56.48792969 98.92878906 54.9453125 97.8359375 C37.3365299 85.036086 24.26455385 69.09380991 14 50 C13.4534375 49.01257812 12.906875 48.02515625 12.34375 47.0078125 C4.83213769 32.8660526 0 16.01790343 0 0 Z " fill="#E51F18" transform="translate(10,0)"/>
</svg>
